# xmcd
#
# Track frame offsets:
#       182
#       16392
#       29930
#       43640
#       55717
#       68895
#       84152
#       98140
#       110595
#       124075
#       136947
#       150265
#       161875
#       173675
#       187102
#       200852
#       213490
#       225407
#       237977
#       250967
#       262870
#       276147
#
# Disc length: 3837 seconds
#
# Revision: 0
# Processed by: cddbd v1.4PL0 Copyright (c) Steve Scherf et al.
# Submitted via: CD-DA_X-Tractor v0.23
#
DISCID=340efb16
DTITLE=Big Bill Broonzy - 1935 - 1940
DYEAR=1991
DGENRE=
TTITLE0=The southern blues
TTITLE1=Thes ants keep biting me
TTITLE2=Married life is a pain
TTITLE3=Pneumonia blues (I keep on aching)
TTITLE4=Detroit special
TTITLE5=Falling rain
TTITLE6=Horny frog
TTITLE7=Hattie blues
TTITLE8=Somebody's got to go
TTITLE9=It's your time now
TTITLE10=Living on easy street
TTITLE11=Baby I done got wise
TTITLE12=Just a dream (on my mind)
TTITLE13=That's allright baby
TTITLE14=I.C. blues
TTITLE15=Cotton choppin' blues
TTITLE16=My last good bye to you
TTITLE17=Don't you be no fool
TTITLE18=Just a dream n°2
TTITLE19=Oh yes
TTITLE20=Jivin' Mr fuller blues
TTITLE21=What is that she got ?
EXTD=
EXTT0=
EXTT1=
EXTT2=
EXTT3=
EXTT4=
EXTT5=
EXTT6=
EXTT7=
EXTT8=
EXTT9=
EXTT10=
EXTT11=
EXTT12=
EXTT13=
EXTT14=
EXTT15=
EXTT16=
EXTT17=
EXTT18=
EXTT19=
EXTT20=
EXTT21=
PLAYORDER=
